<svg width="19" height="19" viewBox="0 0 19 19" fill="none" xmlns="http://www.w3.org/2000/svg">
<path d="M7.7875 7.9375C7.7875 8.07169 7.76107 8.20457 7.70971 8.32855C7.65836 8.45253 7.58309 8.56519 7.4882 8.66008C7.39331 8.75496 7.28066 8.83024 7.15668 8.88159C7.0327 8.93294 6.89982 8.95938 6.76562 8.95938C6.63143 8.95938 6.49855 8.93294 6.37457 8.88159C6.25059 8.83024 6.13794 8.75496 6.04305 8.66008C5.94816 8.56519 5.87289 8.45253 5.82154 8.32855C5.77018 8.20457 5.74375 8.07169 5.74375 7.9375C5.74375 7.66648 5.85141 7.40656 6.04305 7.21493C6.23469 7.02329 6.49461 6.91563 6.76562 6.91563C7.03664 6.91563 7.29656 7.02329 7.4882 7.21493C7.67984 7.40656 7.7875 7.66648 7.7875 7.9375ZM12.9569 8.66008C12.7653 8.85171 12.5054 8.95938 12.2344 8.95938C11.9634 8.95938 11.7034 8.85171 11.5118 8.66008C11.3202 8.46844 11.2125 8.20852 11.2125 7.9375C11.2125 7.66648 11.3202 7.40656 11.5118 7.21493C11.7034 7.02329 11.9634 6.91563 12.2344 6.91563C12.5054 6.91563 12.7653 7.02329 12.9569 7.21493C13.1486 7.40656 13.2563 7.66648 13.2563 7.9375C13.2563 8.20852 13.1486 8.46844 12.9569 8.66008ZM5.92864 11.3974C6.04702 11.279 6.20758 11.2125 6.375 11.2125H12.625C12.7924 11.2125 12.953 11.279 13.0714 11.3974C13.1897 11.5158 13.2563 11.6763 13.2563 11.8438C13.2563 12.0112 13.1897 12.1717 13.0714 12.2901C12.953 12.4085 12.7924 12.475 12.625 12.475H6.375C6.20758 12.475 6.04702 12.4085 5.92864 12.2901C5.81026 12.1717 5.74375 12.0112 5.74375 11.8438C5.74375 11.6763 5.81026 11.5158 5.92864 11.3974ZM9.5 0.275C10.7114 0.275 11.911 0.513612 13.0303 0.977211C14.1495 1.44081 15.1664 2.12032 16.0231 2.97694C16.8797 3.83356 17.5592 4.85052 18.0228 5.96975C18.4864 7.08897 18.725 8.28856 18.725 9.5C18.725 10.7114 18.4864 11.911 18.0228 13.0303C17.5592 14.1495 16.8797 15.1664 16.0231 16.0231C15.1664 16.8797 14.1495 17.5592 13.0303 18.0228C11.911 18.4864 10.7114 18.725 9.5 18.725C7.05338 18.725 4.70696 17.7531 2.97694 16.0231C1.24692 14.293 0.275 11.9466 0.275 9.5C0.275 7.05338 1.24692 4.70696 2.97694 2.97694C4.70696 1.24692 7.05338 0.275 9.5 0.275ZM9.5 1.5375C7.38821 1.5375 5.36292 2.3764 3.86966 3.86966C2.3764 5.36292 1.5375 7.38821 1.5375 9.5C1.5375 11.6118 2.3764 13.6371 3.86966 15.1303C5.36292 16.6236 7.38821 17.4625 9.5 17.4625C11.6118 17.4625 13.6371 16.6236 15.1303 15.1303C16.6236 13.6371 17.4625 11.6118 17.4625 9.5C17.4625 7.38821 16.6236 5.36292 15.1303 3.86966C13.6371 2.3764 11.6118 1.5375 9.5 1.5375Z" fill="white" stroke="#303030" stroke-width="0.3"/>
</svg>
