<svg width="19" height="19" viewBox="0 0 19 19" fill="none" xmlns="http://www.w3.org/2000/svg">
<path d="M0.125 9.5C0.125 10.7311 0.367491 11.9502 0.838629 13.0877C1.30977 14.2251 2.00032 15.2586 2.87087 16.1291C3.74142 16.9997 4.77492 17.6902 5.91234 18.1614C7.04977 18.6325 8.26886 18.875 9.5 18.875C10.7311 18.875 11.9502 18.6325 13.0877 18.1614C14.2251 17.6902 15.2586 16.9997 16.1291 16.1291C16.9997 15.2586 17.6902 14.2251 18.1614 13.0877C18.6325 11.9502 18.875 10.7311 18.875 9.5C18.875 7.0136 17.8873 4.62903 16.1291 2.87087C14.371 1.11272 11.9864 0.125 9.5 0.125C7.0136 0.125 4.62903 1.11272 2.87087 2.87087C1.11272 4.62903 0.125 7.0136 0.125 9.5ZM7.9375 7.9375C7.9375 8.09139 7.90719 8.24378 7.8483 8.38596C7.7894 8.52814 7.70308 8.65732 7.59427 8.76614C7.48545 8.87496 7.35626 8.96128 7.21408 9.02017C7.0719 9.07906 6.91952 9.10938 6.76562 9.10938C6.61173 9.10938 6.45935 9.07906 6.31717 9.02017C6.17499 8.96128 6.0458 8.87496 5.93698 8.76614C5.82817 8.65732 5.74185 8.52814 5.68295 8.38596C5.62406 8.24378 5.59375 8.09139 5.59375 7.9375C5.59375 7.6267 5.71721 7.32863 5.93698 7.10886C6.15675 6.88909 6.45482 6.76562 6.76562 6.76562C7.07643 6.76562 7.3745 6.88909 7.59427 7.10886C7.81404 7.32863 7.9375 7.6267 7.9375 7.9375ZM13.4062 7.9375C13.4062 8.2483 13.2828 8.54637 13.063 8.76614C12.8432 8.98591 12.5452 9.10938 12.2344 9.10938C11.9236 9.10938 11.6255 8.98591 11.4057 8.76614C11.186 8.54637 11.0625 8.2483 11.0625 7.9375C11.0625 7.6267 11.186 7.32863 11.4057 7.10886C11.6255 6.88909 11.9236 6.76562 12.2344 6.76562C12.5452 6.76562 12.8432 6.88909 13.063 7.10886C13.2828 7.32863 13.4062 7.6267 13.4062 7.9375ZM6.375 11.0625H12.625C12.8322 11.0625 13.0309 11.1448 13.1774 11.2913C13.3239 11.4378 13.4062 11.6365 13.4062 11.8438C13.4062 12.051 13.3239 12.2497 13.1774 12.3962C13.0309 12.5427 12.8322 12.625 12.625 12.625H6.375C6.1678 12.625 5.96909 12.5427 5.82257 12.3962C5.67606 12.2497 5.59375 12.051 5.59375 11.8438C5.59375 11.6365 5.67606 11.4378 5.82257 11.2913C5.96909 11.1448 6.1678 11.0625 6.375 11.0625Z" fill="#FFC700"/>
</svg>
