<svg width="18" height="18" viewBox="0 0 18 18" fill="none" xmlns="http://www.w3.org/2000/svg">
<path d="M3.4681e-05 2C3.4681e-05 0.9 0.900035 0 2.00003 0H9.00003C8.39227 0.811622 8.04552 1.78879 8.00574 2.80196C7.96596 3.81514 8.23503 4.81648 8.7773 5.67325C9.31956 6.53003 10.1094 7.20177 11.0421 7.59944C11.9748 7.99711 13.0064 8.10193 14 7.9V16.48C14 17.2 13.27 17.68 12.61 17.4L7.00003 15L1.39003 17.4C1.23814 17.466 1.07217 17.493 0.907197 17.4785C0.742225 17.464 0.58348 17.4086 0.445383 17.3172C0.307287 17.2258 0.194215 17.1013 0.11644 16.9551C0.0386647 16.8089 -0.00134854 16.6456 3.4681e-05 16.48V2ZM17.07 0.34C17.46 0.73 17.46 1.36 17.07 1.75L13.53 5.29C13.4375 5.3827 13.3276 5.45625 13.2067 5.50643C13.0857 5.55661 12.956 5.58244 12.825 5.58244C12.6941 5.58244 12.5644 5.55661 12.4434 5.50643C12.3224 5.45625 12.2125 5.3827 12.12 5.29L10.71 3.88C10.6175 3.78742 10.544 3.67751 10.4939 3.55654C10.4438 3.43558 10.418 3.30593 10.418 3.175C10.418 3.04407 10.4438 2.91442 10.4939 2.79346C10.544 2.67249 10.6175 2.56258 10.71 2.47C10.8026 2.37742 10.9125 2.30398 11.0335 2.25387C11.1545 2.20377 11.2841 2.17798 11.415 2.17798C11.546 2.17798 11.6756 2.20377 11.7966 2.25387C11.9175 2.30398 12.0275 2.37742 12.12 2.47L12.83 3.18L15.66 0.35C16.05 -0.0500001 16.68 -0.0500001 17.07 0.34Z" fill="#00BDFF"/>
</svg>
