<svg width="10" height="16" viewBox="0 0 10 16" fill="none" xmlns="http://www.w3.org/2000/svg">
<path fill-rule="evenodd" clip-rule="evenodd" d="M8.71663 6.93015C8.99753 7.2114 9.15531 7.59264 9.15531 7.99015C9.15531 8.38765 8.99753 8.7689 8.71663 9.05015L3.06063 14.7081C2.77923 14.9894 2.39763 15.1474 1.99977 15.1473C1.60192 15.1472 1.22039 14.989 0.939127 14.7076C0.657865 14.4263 0.499906 14.0447 0.5 13.6468C0.500094 13.2489 0.658233 12.8674 0.939627 12.5861L5.53563 7.99015L0.939627 3.39415C0.666254 3.11137 0.514881 2.73254 0.518112 2.33924C0.521343 1.94594 0.678919 1.56965 0.956901 1.2914C1.23488 1.01316 1.61103 0.855227 2.00432 0.851625C2.39762 0.848024 2.7766 0.999039 3.05963 1.27215L8.71763 6.92915L8.71663 6.93015Z" fill="white"/>
</svg>
